<?xml version="1.0" encoding="utf-8"?>
<!-- Generator: Adobe Illustrator 19.0.0, SVG Export Plug-In . SVG Version: 6.00 Build 0)  -->
<svg version="1.1" id="Layer_1" xmlns="http://www.w3.org/2000/svg" xmlns:xlink="http://www.w3.org/1999/xlink" x="0px" y="0px" width="85" heigth="85" viewBox="0 0 130 219" style="enable-background:new 0 0 130 219;" xml:space="preserve">
<style type="text/css">
	.st0{fill:#00ADF1;}
	.st1{fill:#FFFFFA;}
	.st2{clip-path:url(#XMLID_69_);fill:none;stroke:#667080;stroke-width:3;stroke-miterlimit:10;}
	.st3{clip-path:url(#XMLID_69_);}
</style>
<path id="XMLID_835_" class="st0" d="M111.1,4.7H22.1c-7.6,0-13.8,6.2-13.8,13.8V199c0,7.6,6.2,13.8,13.8,13.8h89.1
	c7.6,0,13.8-6.2,13.8-13.8V18.5C125,10.8,118.8,4.7,111.1,4.7z"/>
<path id="XMLID_836_" class="st1" d="M13.4,184.6V21.1c0-0.1,0.1-0.2,0.3-0.2h106c0.2,0,0.3,0.1,0.3,0.2v163.5
	c0,0.1-0.1,0.2-0.3,0.2h-106C13.5,184.8,13.4,184.7,13.4,184.6z"/>
<circle id="XMLID_837_" class="st1" cx="66.6" cy="199.3" r="9.8"/>
<path id="XMLID_838_" class="st1" d="M80.4,11.4H52.8c-0.8,0-1.4,0.7-1.4,1.4v0.3c0,0.8,0.7,1.4,1.4,1.4h27.7c0.8,0,1.4-0.7,1.4-1.4
	v-0.3C81.9,12,81.2,11.4,80.4,11.4z"/>
<g id="XMLID_2_">
	<defs>
		<circle id="XMLID_4_" cx="40.1" cy="35.9" r="8.4"/>
	</defs>
	<clipPath id="XMLID_69_">
		<use xlink:href="#XMLID_4_"  style="overflow:visible;"/>
	</clipPath>
	<circle id="XMLID_7_" class="st2" cx="40.1" cy="35.9" r="8.4"/>
	<g id="XMLID_5_" class="st3">
		<path id="XMLID_6_" class="st0" d="M44.3,41.5c-1.9-0.7-2.6-1.3-2.6-2.6c0-0.8,0.6-0.5,0.9-1.9c0.1-0.6,0.6,0,0.7-1.3
			c0-0.5-0.3-0.7-0.3-0.7s0.1-0.8,0.2-1.4c0.1-0.8-0.4-2.7-3.1-2.7c-2.7,0-3.2,1.9-3.1,2.7c0.1,0.6,0.2,1.4,0.2,1.4
			s-0.3,0.1-0.3,0.7c0.1,1.3,0.6,0.8,0.7,1.3c0.3,1.4,0.9,1.2,0.9,1.9c0,1.3-0.6,1.9-2.6,2.6c-1.9,0.7-3.2,1.4-3.2,1.9s0,1.7,0,1.7
			h7.4h7.4c0,0,0-1.2,0-1.7S46.2,42.2,44.3,41.5z"/>
	</g>
</g>
<rect id="XMLID_3_" x="54.6" y="37.7" class="st0" width="35.2" height="0.5"/>
<path id="XMLID_8_" class="st0" d="M59.8,75.1H32.4c-0.3,0-0.5-0.2-0.5-0.5v0c0-0.3,0.2-0.5,0.5-0.5h27.4c0.3,0,0.5,0.2,0.5,0.5v0
	C60.3,74.9,60,75.1,59.8,75.1z"/>
<path id="XMLID_9_" class="st0" d="M103.5,83.7H76.1c-0.3,0-0.5-0.2-0.5-0.5l0,0c0-0.3,0.2-0.5,0.5-0.5h27.4c0.3,0,0.5,0.2,0.5,0.5
	l0,0C104,83.5,103.8,83.7,103.5,83.7z"/>
<path id="XMLID_11_" class="st0" d="M59.8,92.3H32.4c-0.3,0-0.5-0.2-0.5-0.5l0,0c0-0.3,0.2-0.5,0.5-0.5h27.4c0.3,0,0.5,0.2,0.5,0.5
	l0,0C60.3,92.1,60,92.3,59.8,92.3z"/>
<path id="XMLID_12_" class="st0" d="M59.8,100.9H32.4c-0.3,0-0.5-0.2-0.5-0.5l0,0c0-0.3,0.2-0.5,0.5-0.5h27.4c0.3,0,0.5,0.2,0.5,0.5
	l0,0C60.3,100.6,60,100.9,59.8,100.9z"/>
<path id="XMLID_13_" class="st0" d="M103.5,109.4H76.1c-0.3,0-0.5-0.2-0.5-0.5v0c0-0.3,0.2-0.5,0.5-0.5h27.4c0.3,0,0.5,0.2,0.5,0.5
	v0C104,109.2,103.8,109.4,103.5,109.4z"/>
<path id="XMLID_14_" class="st0" d="M59.8,118H32.4c-0.3,0-0.5-0.2-0.5-0.5l0,0c0-0.3,0.2-0.5,0.5-0.5h27.4c0.3,0,0.5,0.2,0.5,0.5
	l0,0C60.3,117.8,60,118,59.8,118z"/>
<path id="XMLID_15_" class="st0" d="M103.5,126.6H76.1c-0.3,0-0.5-0.2-0.5-0.5l0,0c0-0.3,0.2-0.5,0.5-0.5h27.4
	c0.3,0,0.5,0.2,0.5,0.5l0,0C104,126.4,103.8,126.6,103.5,126.6z"/>
<path id="XMLID_16_" class="st0" d="M59.8,144.3H32.4c-0.3,0-0.5-0.2-0.5-0.5l0,0c0-0.3,0.2-0.5,0.5-0.5h27.4c0.3,0,0.5,0.2,0.5,0.5
	l0,0C60.3,144.1,60,144.3,59.8,144.3z"/>
<path id="XMLID_17_" class="st0" d="M103.5,164H32.4c-0.3,0-0.5-0.2-0.5-0.5l0,0c0-0.3,0.2-0.5,0.5-0.5h71.1c0.3,0,0.5,0.2,0.5,0.5
	l0,0C104,163.8,103.8,164,103.5,164z"/>
</svg>
