<?xml version="1.0" encoding="utf-8"?>
<!-- Generator: Adobe Illustrator 19.0.0, SVG Export Plug-In . SVG Version: 6.00 Build 0)  -->
<svg version="1.1" id="Layer_1" xmlns="http://www.w3.org/2000/svg" xmlns:xlink="http://www.w3.org/1999/xlink" x="0px" y="0px" width="200" heigth="200" viewBox="0 0 401 272" style="enable-background:new 0 0 401 272;" xml:space="preserve">
<style type="text/css">
	.st0{fill:#00ADF1;}
	.st1{fill:#FFFFFF;stroke:#00ADF1;stroke-width:5.8599;stroke-linejoin:round;stroke-miterlimit:10;}
	.st2{fill:none;stroke:#FFCE00;stroke-width:5.8599;stroke-linejoin:round;stroke-miterlimit:10;}
	.st3{fill:none;stroke:#00ADF1;stroke-width:5.8599;stroke-linejoin:round;stroke-miterlimit:10;}
	.st4{fill:none;stroke:#FFCE00;stroke-width:5.8599;stroke-linejoin:round;stroke-miterlimit:10;stroke-dasharray:5.8599;}
	.st5{fill:#FFFFFF;stroke:#00ADF1;stroke-miterlimit:10;}
	.st6{fill:#D1D3D4;stroke:#231F20;stroke-width:5.8599;stroke-linejoin:round;stroke-miterlimit:10;}
	.st7{fill:#D1D3D4;stroke:#FFCE00;stroke-width:5.8599;stroke-linejoin:round;stroke-miterlimit:10;}
</style>
<rect id="XMLID_33_" x="171.5" y="29.4" class="st0" width="186.1" height="26.4"/>
<polygon id="XMLID_32_" class="st1" points="171.5,51.4 171.5,10.4 55.8,10.4 55.8,50.9 55.8,68 55.8,262.3 357.6,262.3 357.6,51.4 
	"/>
<line id="XMLID_31_" class="st2" x1="171.5" y1="51.4" x2="143.7" y2="51.4"/>
<g id="XMLID_29_">
	<polyline id="XMLID_30_" class="st1" points="293.1,192 293.1,129 315.1,129 277.6,79 240.1,129 259.4,129 259.4,192 	"/>
</g>
<g id="XMLID_27_">
	<polyline id="XMLID_28_" class="st1" points="342.9,99.7 342.9,162.7 320.6,162.7 358.2,212.8 395.7,162.7 376.6,162.7 376.6,99.7 
			"/>
</g>
<line id="XMLID_26_" class="st3" x1="329.7" y1="99.7" x2="388.3" y2="99.7"/>
<line id="XMLID_25_" class="st3" x1="247.7" y1="192" x2="303.4" y2="192"/>
<line id="XMLID_24_" class="st4" x1="359" y1="183.2" x2="359" y2="114.4"/>
<line id="XMLID_23_" class="st4" x1="277" y1="178.8" x2="277" y2="111.4"/>
<path id="XMLID_22_" class="st5" d="M52,217.3c10.1,0,19.4,3,27.1,8.3c5.2-5.9,12.4-10.1,20.6-11.5c-0.3-2.3-0.5-4.6-0.5-7
	c0-26.4,21.4-47.8,47.7-47.8c26.4,0,47.7,21.4,47.7,47.7c0,3.9-0.5,7.7-1.4,11.3c3.5-0.8,7.2-1.1,11-1.1c26.4,0,47.7,20.1,47.7,47.9
	H4.3C4.3,237.4,25.6,217.3,52,217.3z"/>
<path id="XMLID_21_" class="st6" d="M251.2,264.9"/>
<path id="XMLID_20_" class="st7" d="M193.3,218.4c0,0-5.8,4.7-7.7,5.7"/>
<path id="XMLID_19_" class="st7" d="M79.1,225.6c0,0,2.6,4.5,2.7,8"/>
</svg>
