<?xml version="1.0" encoding="utf-8"?>
<!-- Generator: Adobe Illustrator 19.0.0, SVG Export Plug-In . SVG Version: 6.00 Build 0)  -->
<svg version="1.1" id="Layer_1" xmlns="http://www.w3.org/2000/svg" xmlns:xlink="http://www.w3.org/1999/xlink" x="0px" y="0px" width="150" heigth="150" viewBox="0 0 340 405" style="enable-background:new 0 0 340 405;" xml:space="preserve">
<style type="text/css">
	.st0{fill:#757575;}
	.st1{fill:#FFFFFF;stroke:#231F20;stroke-width:5.8599;stroke-linejoin:round;stroke-miterlimit:10;}
	.st2{fill:#A7A9AC;stroke:#231F20;stroke-width:5.8599;stroke-linejoin:round;stroke-miterlimit:10;}
	.st3{fill:#F1F2F2;stroke:#231F20;stroke-width:5.8599;stroke-linejoin:round;stroke-miterlimit:10;}
	.st4{fill:#D1D3D4;}
	.st5{fill:#00ADF1;stroke:#231F20;stroke-width:5.8599;stroke-linejoin:round;stroke-miterlimit:10;}
	.st6{fill:none;stroke:#231F20;stroke-width:5.8599;stroke-linejoin:round;stroke-miterlimit:10;}
	.st7{fill:none;stroke:#231F20;stroke-width:5.8599;stroke-linejoin:round;stroke-miterlimit:10;stroke-dasharray:5.8599;}
</style>
<path id="XMLID_90_" class="st0" d="M171.4,50.4C80,50.4,5.9,124.5,5.9,215.9c0,91.4,74.1,165.5,165.5,165.5
	c91.4,0,165.5-74.1,165.5-165.5C337,124.5,262.8,50.4,171.4,50.4z M171.4,329.4c-62.7,0-113.5-50.8-113.5-113.5
	c0-62.7,50.8-113.5,113.5-113.5c62.7,0,113.5,50.8,113.5,113.5C284.9,278.6,234.1,329.4,171.4,329.4z"/>
<g id="XMLID_58_">
	<g id="XMLID_83_">
		<path id="XMLID_88_" class="st1" d="M236.1,294.2c0.9-0.5,1.9-0.8,2.7-1.6l84-84c4.7-4.7,4.4-12.1,0.3-16.2l-6.3-6.3L137.3,6.7
			L49.3,94.7l179.4,179.4l6.3,6.3C238.5,283.9,238.8,289.8,236.1,294.2z"/>
		<path id="XMLID_87_" class="st1" d="M100.5,158.6c-0.9,0.5-2.2,1-3,1.8l-84,84c-4.7,4.7-4.8,12.7-0.8,16.8l6.3,6.3l133.8,133.8
			l89.1-89.1L108.2,178.5l-6.3-6.3C98.4,168.7,97.8,163.1,100.5,158.6z"/>
		<path id="XMLID_86_" class="st2" d="M236,293.8c2.7-4.4,2.5-9.9-0.9-13.4l-6.3-6.3L120.6,166l-6.3-6.3c-3.4-3.4-8.9-3.6-13.4-0.9
			c-2.7,4.4-2.5,9.9,0.9,13.4l6.3,6.3l108.1,108.1l6.3,6.3C226,296.3,231.5,296.6,236,293.8z"/>
		<line id="XMLID_85_" class="st3" x1="231.6" y1="277" x2="225.4" y2="283.3"/>
		<line id="XMLID_84_" class="st3" x1="118.7" y1="164.1" x2="112.5" y2="170.3"/>
	</g>
	<line id="XMLID_82_" class="st3" x1="301" y1="195.2" x2="287.5" y2="208.7"/>
	<line id="XMLID_81_" class="st3" x1="292.7" y1="186.9" x2="229.5" y2="250.1"/>
	<line id="XMLID_80_" class="st3" x1="199.5" y1="93.7" x2="173.6" y2="119.6"/>
	<line id="XMLID_79_" class="st3" x1="189.1" y1="83.3" x2="125.9" y2="146.5"/>
	<line id="XMLID_78_" class="st3" x1="165.3" y1="127.9" x2="158.1" y2="135.1"/>
	<line id="XMLID_77_" class="st3" x1="121.8" y1="217" x2="94.9" y2="243.9"/>
	<line id="XMLID_76_" class="st3" x1="87.6" y1="251.1" x2="81.4" y2="257.4"/>
	<line id="XMLID_75_" class="st3" x1="35.8" y1="257.4" x2="60.7" y2="232.5"/>
	<line id="XMLID_74_" class="st3" x1="48.2" y1="269.8" x2="111.4" y2="206.6"/>
	<line id="XMLID_73_" class="st3" x1="194.3" y1="289.5" x2="167.4" y2="316.4"/>
	<line id="XMLID_72_" class="st3" x1="160.1" y1="323.7" x2="153.9" y2="329.9"/>
	<line id="XMLID_71_" class="st3" x1="120.8" y1="342.3" x2="183.9" y2="279.1"/>
	<line id="XMLID_70_" class="st3" x1="140.9" y1="295.2" x2="170.5" y2="265.6"/>
	<line id="XMLID_69_" class="st3" x1="70" y1="223.2" x2="76.2" y2="217"/>
	<line id="XMLID_68_" class="st3" x1="197.4" y1="334" x2="183.9" y2="347.5"/>
	<line id="XMLID_67_" class="st3" x1="189.1" y1="325.7" x2="150.8" y2="364.1"/>
	<path id="XMLID_66_" class="st4" d="M198.5,325.3c-4.3-4.3-4.3-11.2,0-15.4c4.3-4.3,11.2-4.3,15.4,0c4.3,4.3,4.3,11.2,0,15.4
		C209.7,329.6,202.8,329.6,198.5,325.3z"/>
	<line id="XMLID_65_" class="st3" x1="178.8" y1="352.7" x2="164.3" y2="367.2"/>
	
		<rect id="XMLID_64_" x="91.6" y="79.8" transform="matrix(-0.7071 0.7071 -0.7071 -0.7071 298.9218 63.565)" class="st4" width="89.4" height="27.8"/>
	<line id="XMLID_63_" class="st3" x1="148.7" y1="42.9" x2="131.1" y2="60.5"/>
	<line id="XMLID_62_" class="st3" x1="123.9" y1="67.8" x2="86.6" y2="105.1"/>
	<line id="XMLID_61_" class="st3" x1="139.4" y1="33.6" x2="93.8" y2="79.2"/>
	
		<rect id="XMLID_60_" x="171.1" y="127.4" transform="matrix(0.7071 -0.7071 0.7071 0.7071 -58.2071 202.2389)" class="st4" width="87.9" height="87.9"/>
	
		<rect id="XMLID_59_" x="70.9" y="257.1" transform="matrix(0.7071 -0.7071 0.7071 0.7071 -159.8487 161.9588)" class="st4" width="89.4" height="33.7"/>
</g>
<g id="XMLID_53_">
	<g id="XMLID_56_">
		<polyline id="XMLID_57_" class="st5" points="243.2,170.7 287.8,126.1 303.5,141.9 312.4,79.9 250.5,88.8 264,102.3 219.4,146.8 
					"/>
	</g>
	<line id="XMLID_55_" class="st6" x1="252.6" y1="180" x2="211.1" y2="138.6"/>
	<line id="XMLID_54_" class="st7" x1="290.9" y1="100.2" x2="242.2" y2="148.9"/>
</g>
<g id="XMLID_48_">
	<g id="XMLID_51_">
		<polyline id="XMLID_52_" class="st5" points="92.2,277.4 47.6,321.9 31.9,306.2 23,368.1 84.9,359.2 71.4,345.7 116,301.2 		"/>
	</g>
	<line id="XMLID_50_" class="st6" x1="82.8" y1="268.1" x2="124.3" y2="309.5"/>
	<line id="XMLID_49_" class="st7" x1="44.5" y1="347.8" x2="93.2" y2="299.1"/>
</g>
</svg>
