<?xml version="1.0" encoding="utf-8"?>
<!-- Generator: Adobe Illustrator 19.0.0, SVG Export Plug-In . SVG Version: 6.00 Build 0)  -->
<svg version="1.1" id="Layer_1" xmlns="http://www.w3.org/2000/svg" xmlns:xlink="http://www.w3.org/1999/xlink" x="0px" y="0px" width="150" heigth="150" viewBox="0 0 129 222" style="enable-background:new 0 0 129 222;" xml:space="preserve">
<style type="text/css">
	.st0{fill:#00ADF1;}
	.st1{fill:#FFFFFA;}
	.st2{clip-path:url(#XMLID_100_);fill:none;stroke:#667080;stroke-width:3;stroke-miterlimit:10;}
	.st3{clip-path:url(#XMLID_100_);}
	.st4{clip-path:url(#XMLID_101_);fill:none;stroke:#667080;stroke-width:3;stroke-miterlimit:10;}
	.st5{clip-path:url(#XMLID_101_);}
	.st6{clip-path:url(#XMLID_102_);fill:none;stroke:#667080;stroke-width:3;stroke-miterlimit:10;}
	.st7{clip-path:url(#XMLID_102_);}
	.st8{clip-path:url(#XMLID_103_);fill:none;stroke:#667080;stroke-width:3;stroke-miterlimit:10;}
	.st9{clip-path:url(#XMLID_103_);}
	.st10{clip-path:url(#XMLID_104_);fill:none;stroke:#667080;stroke-width:3;stroke-miterlimit:10;}
	.st11{clip-path:url(#XMLID_104_);}
	.st12{fill:none;}
	.st13{fill:#4D4D4D;}
	.st14{font-family:'ProximaNova-Bold';}
	.st15{font-size:12px;}
</style>
<path id="XMLID_835_" class="st0" d="M109.1,4.7H20.1c-7.6,0-13.8,6.2-13.8,13.8V199c0,7.6,6.2,13.8,13.8,13.8h89.1
	c7.6,0,13.8-6.2,13.8-13.8V18.5C123,10.8,116.8,4.7,109.1,4.7z"/>
<path id="XMLID_836_" class="st1" d="M11.4,184.6V21.1c0-0.1,0.1-0.2,0.3-0.2h106c0.2,0,0.3,0.1,0.3,0.2v163.5
	c0,0.1-0.1,0.2-0.3,0.2h-106C11.5,184.8,11.4,184.7,11.4,184.6z"/>
<circle id="XMLID_837_" class="st1" cx="64.6" cy="199.3" r="9.8"/>
<path id="XMLID_838_" class="st1" d="M78.4,11.4H50.8c-0.8,0-1.4,0.7-1.4,1.4v0.3c0,0.8,0.7,1.4,1.4,1.4h27.7c0.8,0,1.4-0.7,1.4-1.4
	v-0.3C79.9,12,79.2,11.4,78.4,11.4z"/>
<g id="XMLID_1_">
	<g id="XMLID_3_">
		<defs>
			<circle id="XMLID_4_" cx="37.1" cy="58.9" r="8.4"/>
		</defs>
		<clipPath id="XMLID_100_">
			<use xlink:href="#XMLID_4_"  style="overflow:visible;"/>
		</clipPath>
		<circle id="XMLID_7_" class="st2" cx="37.1" cy="58.9" r="8.4"/>
		<g id="XMLID_5_" class="st3">
			<path id="XMLID_6_" class="st0" d="M41.3,64.5c-1.9-0.7-2.6-1.3-2.6-2.6c0-0.8,0.6-0.5,0.9-1.9c0.1-0.6,0.6,0,0.7-1.3
				c0-0.5-0.3-0.7-0.3-0.7s0.1-0.8,0.2-1.4c0.1-0.8-0.4-2.7-3.1-2.7c-2.7,0-3.2,1.9-3.1,2.7c0.1,0.6,0.2,1.4,0.2,1.4
				s-0.3,0.1-0.3,0.7c0.1,1.3,0.6,0.8,0.7,1.3c0.3,1.4,0.9,1.2,0.9,1.9c0,1.3-0.6,1.9-2.6,2.6c-1.9,0.7-3.2,1.4-3.2,1.9s0,1.7,0,1.7
				h7.4h7.4c0,0,0-1.2,0-1.7S43.2,65.2,41.3,64.5z"/>
		</g>
	</g>
	<rect id="XMLID_8_" x="51.6" y="54.7" class="st0" width="49.4" height="0.5"/>
	<rect id="XMLID_18_" x="51.6" y="63.3" class="st0" width="49.4" height="0.5"/>
	<rect id="XMLID_10_" x="51.6" y="58.9" class="st0" width="49.4" height="0.5"/>
</g>
<g id="XMLID_2_">
	<g id="XMLID_12_">
		<defs>
			<circle id="XMLID_13_" cx="37.1" cy="82.2" r="8.4"/>
		</defs>
		<clipPath id="XMLID_101_">
			<use xlink:href="#XMLID_13_"  style="overflow:visible;"/>
		</clipPath>
		<circle id="XMLID_16_" class="st4" cx="37.1" cy="82.2" r="8.4"/>
		<g id="XMLID_14_" class="st5">
			<path id="XMLID_15_" class="st0" d="M41.3,87.8c-1.9-0.7-2.6-1.3-2.6-2.6c0-0.8,0.6-0.5,0.9-1.9c0.1-0.6,0.6,0,0.7-1.3
				c0-0.5-0.3-0.7-0.3-0.7s0.1-0.8,0.2-1.4c0.1-0.8-0.4-2.7-3.1-2.7c-2.7,0-3.2,1.9-3.1,2.7c0.1,0.6,0.2,1.4,0.2,1.4
				s-0.3,0.1-0.3,0.7c0.1,1.3,0.6,0.8,0.7,1.3c0.3,1.4,0.9,1.2,0.9,1.9c0,1.3-0.6,1.9-2.6,2.6c-1.9,0.7-3.2,1.4-3.2,1.9s0,1.7,0,1.7
				h7.4h7.4c0,0,0-1.2,0-1.7S43.2,88.5,41.3,87.8z"/>
		</g>
	</g>
	<rect id="XMLID_11_" x="51.6" y="77.9" class="st0" width="49.4" height="0.5"/>
	<rect id="XMLID_9_" x="51.6" y="86.5" class="st0" width="49.4" height="0.5"/>
	<rect id="XMLID_17_" x="51.6" y="82.2" class="st0" width="49.4" height="0.5"/>
</g>
<g id="XMLID_44_">
	<g id="XMLID_21_">
		<defs>
			<circle id="XMLID_22_" cx="37.1" cy="105.4" r="8.4"/>
		</defs>
		<clipPath id="XMLID_102_">
			<use xlink:href="#XMLID_22_"  style="overflow:visible;"/>
		</clipPath>
		<circle id="XMLID_25_" class="st6" cx="37.1" cy="105.4" r="8.4"/>
		<g id="XMLID_23_" class="st7">
			<path id="XMLID_24_" class="st0" d="M41.3,111c-1.9-0.7-2.6-1.3-2.6-2.6c0-0.8,0.6-0.5,0.9-1.9c0.1-0.6,0.6,0,0.7-1.3
				c0-0.5-0.3-0.7-0.3-0.7s0.1-0.8,0.2-1.4c0.1-0.8-0.4-2.7-3.1-2.7c-2.7,0-3.2,1.9-3.1,2.7c0.1,0.6,0.2,1.4,0.2,1.4
				s-0.3,0.1-0.3,0.7c0.1,1.3,0.6,0.8,0.7,1.3c0.3,1.4,0.9,1.2,0.9,1.9c0,1.3-0.6,1.9-2.6,2.6c-1.9,0.7-3.2,1.4-3.2,1.9s0,1.7,0,1.7
				h7.4h7.4c0,0,0-1.2,0-1.7S43.2,111.7,41.3,111z"/>
		</g>
	</g>
	<rect id="XMLID_20_" x="51.6" y="101.2" class="st0" width="49.4" height="0.5"/>
	<rect id="XMLID_26_" x="51.6" y="109.8" class="st0" width="49.4" height="0.5"/>
	<rect id="XMLID_27_" x="51.6" y="105.4" class="st0" width="49.4" height="0.5"/>
</g>
<g id="XMLID_45_">
	<g id="XMLID_29_">
		<defs>
			<circle id="XMLID_30_" cx="37.1" cy="128.7" r="8.4"/>
		</defs>
		<clipPath id="XMLID_103_">
			<use xlink:href="#XMLID_30_"  style="overflow:visible;"/>
		</clipPath>
		<circle id="XMLID_33_" class="st8" cx="37.1" cy="128.7" r="8.4"/>
		<g id="XMLID_31_" class="st9">
			<path id="XMLID_32_" class="st0" d="M41.3,134.3c-1.9-0.7-2.6-1.3-2.6-2.6c0-0.8,0.6-0.5,0.9-1.9c0.1-0.6,0.6,0,0.7-1.3
				c0-0.5-0.3-0.7-0.3-0.7s0.1-0.8,0.2-1.4c0.1-0.8-0.4-2.7-3.1-2.7c-2.7,0-3.2,1.9-3.1,2.7c0.1,0.6,0.2,1.4,0.2,1.4
				s-0.3,0.1-0.3,0.7c0.1,1.3,0.6,0.8,0.7,1.3c0.3,1.4,0.9,1.2,0.9,1.9c0,1.3-0.6,1.9-2.6,2.6c-1.9,0.7-3.2,1.4-3.2,1.9s0,1.7,0,1.7
				h7.4h7.4c0,0,0-1.2,0-1.7S43.2,135,41.3,134.3z"/>
		</g>
	</g>
	<rect id="XMLID_28_" x="51.6" y="124.4" class="st0" width="49.4" height="0.5"/>
	<rect id="XMLID_34_" x="51.6" y="133" class="st0" width="49.4" height="0.5"/>
	<rect id="XMLID_35_" x="51.6" y="128.7" class="st0" width="49.4" height="0.5"/>
</g>
<g id="XMLID_37_">
	<defs>
		<circle id="XMLID_38_" cx="37.1" cy="151.9" r="8.4"/>
	</defs>
	<clipPath id="XMLID_104_">
		<use xlink:href="#XMLID_38_"  style="overflow:visible;"/>
	</clipPath>
	<circle id="XMLID_41_" class="st10" cx="37.1" cy="151.9" r="8.4"/>
	<g id="XMLID_39_" class="st11">
		<path id="XMLID_40_" class="st0" d="M41.3,157.5c-1.9-0.7-2.6-1.3-2.6-2.6c0-0.8,0.6-0.5,0.9-1.9c0.1-0.6,0.6,0,0.7-1.3
			c0-0.5-0.3-0.7-0.3-0.7s0.1-0.8,0.2-1.4c0.1-0.8-0.4-2.7-3.1-2.7c-2.7,0-3.2,1.9-3.1,2.7c0.1,0.6,0.2,1.4,0.2,1.4
			s-0.3,0.1-0.3,0.7c0.1,1.3,0.6,0.8,0.7,1.3c0.3,1.4,0.9,1.2,0.9,1.9c0,1.3-0.6,1.9-2.6,2.6c-1.9,0.7-3.2,1.4-3.2,1.9s0,1.7,0,1.7
			h7.4h7.4c0,0,0-1.2,0-1.7S43.2,158.2,41.3,157.5z"/>
	</g>
</g>
<rect id="XMLID_36_" x="51.6" y="147.7" class="st0" width="49.4" height="0.5"/>
<rect id="XMLID_42_" x="51.6" y="156.3" class="st0" width="49.4" height="0.5"/>
<rect id="XMLID_43_" x="51.6" y="151.9" class="st0" width="49.4" height="0.5"/>
<rect id="XMLID_98_" x="33.8" y="30.2" class="st12" width="67.2" height="13.1"/>
<text id="XMLID_19_" transform="matrix(1 0 0 1 33.7968 38.1571)" class="st13 st14 st15">NEWS FEED</text>
</svg>
