<?xml version="1.0" encoding="utf-8"?>
<!-- Generator: Adobe Illustrator 19.0.0, SVG Export Plug-In . SVG Version: 6.00 Build 0)  -->
<svg version="1.1" id="Layer_1" xmlns="http://www.w3.org/2000/svg" xmlns:xlink="http://www.w3.org/1999/xlink" x="0px" y="0px" width="150" heigth="150" viewBox="0 0 151 204" style="enable-background:new 0 0 151 204;" xml:space="preserve">
<style type="text/css">
	.st0{fill:#D1D3D4;}
	.st1{fill:#00ADF1;stroke:#01080A;stroke-width:5;stroke-miterlimit:10;}
	.st2{fill:#506C82;}
	.st3{fill:#00ADF1;stroke:#231F20;stroke-width:4;stroke-miterlimit:10;}
</style>
<path id="XMLID_874_" class="st0" d="M62.3,163.7c0-0.6,0.1-1.3,0.3-1.9c1-2.7,4.1-4.1,6.8-3c4.6,1.7,9.5,2.6,14.5,2.6
	c5.8,0,11.6-1.2,16.6-3.5c2.7-1.2,5.8,0,7,2.6c1.2,2.7,0,5.8-2.6,7c-6.4,2.9-13.7,4.4-21,4.4c-6.4,0-12.5-1.1-18.3-3.3
	C63.6,167.8,62.3,165.8,62.3,163.7z"/>
<path id="XMLID_648_" class="st0" d="M46.7,182.9c0-1.1,0.4-2.3,1.1-3.3c1.8-2.3,5.1-2.7,7.4-0.9c6.2,4.9,17.9,7.9,30.6,7.9
	c11.9,0,23.3-2.8,29.7-7.2c2.4-1.7,5.7-1.1,7.3,1.3c1.7,2.4,1.1,5.7-1.3,7.3c-8.2,5.7-21.5,9.1-35.7,9.1c-15.1,0-29-3.8-37.1-10.2
	C47.4,186,46.7,184.5,46.7,182.9z"/>
<path id="XMLID_876_" class="st1" d="M142.1,136.2c-6.6-13.3-7.2-27.6-7.2-27.6c-1.4-12.7-4-23.3-7.3-32.3
	c-15.8-42.4-68.9-42.4-84.7,0c-3.3,8.9-6,19.6-7.3,32.3c0,0-0.6,14.4-7.2,27.6c-2.2,4.5,0.3,10.3,4.5,10.3h52.4h52.4
	C141.8,146.5,144.3,140.7,142.1,136.2z"/>
<path id="XMLID_878_" class="st2" d="M85.2,34.7L85.2,34.7c-3.2,0-5.7,2.6-5.7,5.7V49c0,3.2,2.6,5.7,5.7,5.7c3.2,0,5.7-2.6,5.7-5.7
	v-8.6C91,37.2,88.4,34.7,85.2,34.7z"/>
<path id="XMLID_8_" class="st3" d="M41.8,64.1c2.4-3.1,3.9-7,3.9-11.2c0-10.1-8.1-18.2-18.2-18.2S9.3,42.8,9.3,52.9
	c0,4.2,1.4,8.1,3.9,11.2l14.3,24.8L41.8,64.1z M27.5,45.2c4.2,0,7.6,3.4,7.6,7.6c0,4.2-3.4,7.6-7.6,7.6s-7.6-3.4-7.6-7.6
	C19.9,48.6,23.3,45.2,27.5,45.2z"/>
</svg>
