<?xml version="1.0" encoding="utf-8"?>
<!-- Generator: Adobe Illustrator 19.0.0, SVG Export Plug-In . SVG Version: 6.00 Build 0)  -->
<svg version="1.1" id="Layer_1" xmlns="http://www.w3.org/2000/svg" xmlns:xlink="http://www.w3.org/1999/xlink" x="0px" y="0px" width="85" heigth="85" viewBox="0 0 130 219" style="enable-background:new 0 0 130 223;" xml:space="preserve">
<style type="text/css">
	.st0{fill:#00ADF1;}
	.st1{fill:#FFFFFA;}
	.st2{clip-path:url(#XMLID_63_);fill:none;stroke:#667080;stroke-width:3;stroke-miterlimit:10;}
	.st3{clip-path:url(#XMLID_63_);}
	.st4{fill:#FFFFFF;}
	.st5{font-family:'MyriadPro-Regular';}
	.st6{font-size:12px;}
</style>
<path id="XMLID_835_" class="st0" d="M109.1,8.7H20.1c-7.6,0-13.8,6.2-13.8,13.8V203c0,7.6,6.2,13.8,13.8,13.8h89.1
	c7.6,0,13.8-6.2,13.8-13.8V22.5C123,14.8,116.8,8.7,109.1,8.7z"/>
<path id="XMLID_836_" class="st1" d="M17.7,188.6V25.1c0-0.1,0.1-0.2,0.2-0.2h93.3c0.1,0,0.2,0.1,0.2,0.2v163.5
	c0,0.1-0.1,0.2-0.2,0.2H17.9C17.8,188.8,17.7,188.7,17.7,188.6z"/>
<circle id="XMLID_837_" class="st1" cx="64.6" cy="203.3" r="9.8"/>
<path id="XMLID_838_" class="st1" d="M78.4,15.4H50.8c-0.8,0-1.4,0.7-1.4,1.4v0.3c0,0.8,0.7,1.4,1.4,1.4h27.7c0.8,0,1.4-0.7,1.4-1.4
	v-0.3C79.9,16,79.2,15.4,78.4,15.4z"/>
<g id="XMLID_2_">
	<defs>
		<circle id="XMLID_4_" cx="65.1" cy="74.9" r="31.5"/>
	</defs>
	<clipPath id="XMLID_63_">
		<use xlink:href="#XMLID_4_"  style="overflow:visible;"/>
	</clipPath>
	<circle id="XMLID_7_" class="st2" cx="65.1" cy="74.9" r="31.5"/>
	<g id="XMLID_5_" class="st3">
		<path id="XMLID_6_" class="st0" d="M80.7,95.9c-7.2-2.6-9.6-4.9-9.6-9.6c0-2.9,2.2-1.9,3.2-7.2c0.4-2.2,2.4,0,2.7-5
			c0-2-1.1-2.5-1.1-2.5s0.5-2.9,0.8-5.2c0.3-2.8-1.6-10.1-11.7-10.1c-10.1,0-11.9,7.3-11.7,10.1c0.2,2.3,0.8,5.2,0.8,5.2
			s-1.1,0.5-1.1,2.5c0.4,5,2.3,2.8,2.7,5c1,5.2,3.2,4.3,3.2,7.2c0,4.8-2.3,7-9.6,9.6c-7.3,2.6-12,5.3-12,7.2c0,1.8,0,6.2,0,6.2h27.6
			h27.6c0,0,0-4.3,0-6.2C92.7,101.3,88,98.6,80.7,95.9z"/>
	</g>
</g>
<rect id="XMLID_3_" x="29.9" y="126.5" class="st0" width="70.4" height="1"/>
<rect id="XMLID_8_" x="29.9" y="144.5" class="st0" width="70.4" height="1"/>
<path id="XMLID_9_" class="st0" d="M85.6,177.5h-42c-5.8,0-10.5-4.7-10.5-10.5v0c0-5.8,4.7-10.5,10.5-10.5h42
	c5.8,0,10.5,4.7,10.5,10.5v0C96.1,172.8,91.4,177.5,85.6,177.5z"/>
<text id="XMLID_10_" transform="matrix(1 0 0 1 45.1879 170.4997)" class="st4 st5 st6">Sign Up</text>
</svg>
