<?xml version="1.0" encoding="utf-8"?>
<!-- Generator: Adobe Illustrator 19.0.0, SVG Export Plug-In . SVG Version: 6.00 Build 0)  -->
<svg version="1.1" id="Capa_1" xmlns="http://www.w3.org/2000/svg" xmlns:xlink="http://www.w3.org/1999/xlink" x="0px" y="0px"
	 viewBox="0 0 1200 1200" style="enable-background:new 0 0 1200 1200;" xml:space="preserve">
<style type="text/css">
	.st0{fill-rule:evenodd;clip-rule:evenodd;fill:#5795CC;}
	.st1{fill-rule:evenodd;clip-rule:evenodd;fill:#E9B68C;}
	.st2{fill-rule:evenodd;clip-rule:evenodd;fill:#FFD6B6;}
	.st3{fill-rule:evenodd;clip-rule:evenodd;fill:#FFE8D6;}
	.st4{fill-rule:evenodd;clip-rule:evenodd;fill:#5481AB;}
	.st5{fill-rule:evenodd;clip-rule:evenodd;fill:#FBBA95;}
	.st6{fill-rule:evenodd;clip-rule:evenodd;fill:#3A6287;}
	.st7{fill-rule:evenodd;clip-rule:evenodd;fill:#00AEEF;stroke:#FFFFFF;stroke-width:2;stroke-miterlimit:10;}
	.st8{fill:#00AEEF;stroke:#FFFFFF;stroke-width:22.699;stroke-miterlimit:10;}
	.st9{fill:#00AEEF;stroke:#FFFFFF;stroke-width:7;stroke-miterlimit:10;}
	.st10{fill-rule:evenodd;clip-rule:evenodd;fill:#FFFFFF;}
	.st11{fill:none;stroke:#FFFFFF;stroke-width:6;stroke-miterlimit:10;}
	.st12{opacity:0.3;fill:none;stroke:#FFFFFF;stroke-width:6;stroke-miterlimit:10;enable-background:new    ;}
	.st13{fill:#D1D3D4;stroke:#FFFFFF;stroke-miterlimit:10;}
	.st14{fill:#00ADF1;stroke:#FFFFFF;stroke-width:5;stroke-miterlimit:10;}
	.st15{fill:#506C82;stroke:#FFFFFF;stroke-miterlimit:10;}
	.st16{fill:#00ADF1;stroke:#FFFFFF;stroke-width:4;stroke-miterlimit:10;}
	.st17{fill:#FFFFFF;}
	.st18{fill:#FFFFFF;stroke:#231F20;stroke-width:5.8599;stroke-linejoin:round;stroke-miterlimit:10;}
	.st19{fill:#A7A9AC;stroke:#231F20;stroke-width:5.8599;stroke-linejoin:round;stroke-miterlimit:10;}
	.st20{fill:none;stroke:#231F20;stroke-width:5.8599;stroke-linejoin:round;stroke-miterlimit:10;}
	.st21{fill:#D1D3D4;}
	.st22{fill:#00ADF1;stroke:#231F20;stroke-width:5.8599;stroke-linejoin:round;stroke-miterlimit:10;}
	.st23{fill:none;stroke:#231F20;stroke-width:5.8599;stroke-linejoin:round;stroke-miterlimit:10;stroke-dasharray:5.8599;}
</style>
<rect x="0" class="st0" width="1200" height="1200"/>
<g>
	<path class="st1" d="M423.8,953c8.9,28.2,40.6,33.3,69.1,45.1c31.1,12.9,52.7,31.6,82.5,18.9c-26.1,5.6-46.9-14.9-78.1-27.8
		C468.8,977.4,440.9,977,423.8,953z"/>
	<polygon class="st1" points="450.8,881.2 619.5,951.7 515.8,1200 317.6,1200 	"/>
	<path class="st1" d="M488.9,706l244,101.9l-35.8,105.8c-33.1,79.1-99.3,123-149.1,102.2l-69.9-29.2
		c-49.8-20.8-73.6-78.6-52.7-128.4L488.9,706z"/>
	<polygon class="st2" points="444.9,875.3 613.6,945.8 507.4,1200 309.2,1200 	"/>
	<path class="st2" d="M483,700L734.1,805l-42.9,102.8c-33.1,79.1-99.3,123-149.1,102.2l-69.9-29.2c-49.8-20.8-73.6-78.6-52.7-128.4
		L483,700z"/>
	<path class="st2" d="M452.1,966.1c-72.3-17.9-71.6-112.4-48.5-168.5c14.3-34.8,123.3,56.3,181.7,87.3
		C571,944.1,510.9,980.7,452.1,966.1z"/>
	<path class="st1" d="M452.8,868.2l35.5-106.3c15.3-45.8-40.7-82.3-52.9-42l-33,104C388.6,852.8,411.6,874.5,452.8,868.2z"/>
	<path class="st1" d="M460.1,775.9l67-58.5c36.3-31.7,22.5-103.1-9.3-75.4l-78.5,68.6C422.1,725.6,441.4,756.6,460.1,775.9z"/>
	<path class="st2" d="M444.3,878.2l37.7-120.6c14.4-46-40.7-82.3-52.9-42l-33,104C382.4,848.6,403.1,884.6,444.3,878.2z"/>
	<path class="st1" d="M784.4,678.6L784.4,678.6c14.3,10.3,17.6,30.5,7.3,44.8l-23.4,32.5c-10.3,14.3-30.5,17.6-44.8,7.3l0,0
		c-14.3-10.3-17.6-30.5-7.3-44.8l23.4-32.5C750,671.5,770.1,668.3,784.4,678.6z"/>
	<path class="st3" d="M693,685.9c-10-6.3-14.1-15.3-10.1-21c12.8-18.6,23.4-20.5,34.8-13.1c10.6,8.5,12.1,19.1-1.5,37.1
		C711.9,694.5,702.1,693.4,693,685.9z"/>
	<path class="st2" d="M781.6,671L781.6,671c14.3,10.3,17.6,30.5,7.3,44.8l-23.4,32.5c-10.3,14.3-30.5,17.6-44.8,7.3h0
		c-14.3-10.3-17.6-30.5-7.3-44.8l23.4-32.5C747.2,664,767.3,660.7,781.6,671z"/>
	<path class="st3" d="M723.9,751c-10-6.3-14.1-15.3-10.1-21c12.8-18.6,23.4-20.5,34.8-13.1c10.6,8.5,12.1,19.1-1.5,37.1
		C742.9,759.5,733,758.5,723.9,751z"/>
	<path class="st4" d="M532.8,818.1l118.2,0c18.4,0,18.4,23.2,0,23.2l-118.2,0C514.4,841.2,514.4,818.1,532.8,818.1z"/>
	<g>
		<path class="st2" d="M519.3,945.5c-99.1,27-124.2-40.5-52.8-143.2C540.2,811,552.7,903.7,519.3,945.5z"/>
		<path class="st1" d="M519.3,945.5c14.9-45.9,3-121.8-52.8-143.2C540.2,811,552.7,903.7,519.3,945.5z"/>
	</g>
	<path class="st5" d="M681,489.3L681,489.3c-16.3-6.8-35.2,1-42,17.2L545.7,730c-6.8,16.3,1,35.2,17.2,42h0c16.3,6.8,35.2-1,42-17.2
		l93.3-223.4C705,515,697.2,496.1,681,489.3z"/>
	<path class="st1" d="M609.3,480.9L609.3,480.9c16.3,6.8,24,25.7,17.2,42L510.1,801.6c-6.8,16.3-25.7,24-42,17.2h0
		c-16.3-6.8-24-25.7-17.2-42l116.5-278.8C574.2,481.8,593.1,474.1,609.3,480.9z"/>
	<path class="st1" d="M753.2,502.5L753.2,502.5c14.7,9.8,18.6,29.8,8.8,44.5L594.1,798.2c-9.8,14.7-29.8,18.6-44.5,8.8h0
		c-14.7-9.8-18.6-29.8-8.8-44.5l167.9-251.2C718.5,496.7,738.5,492.7,753.2,502.5z"/>
	<path class="st2" d="M750.4,494.9L750.4,494.9c14.7,9.8,18.6,29.8,8.8,44.5L591.3,790.6c-9.8,14.7-29.8,18.6-44.5,8.8h0
		c-14.7-9.8-18.6-29.8-8.8-44.5l167.9-251.2C715.7,489.1,735.7,485.1,750.4,494.9z"/>
	<path class="st6" d="M492.8,318.6h214.5c17.5,0,31.8,14.3,31.8,31.8v499.8c0,17.5-14.3,31.8-31.8,31.8H492.8
		c-17.5,0-31.8-14.3-31.8-31.8V350.4C461,332.9,475.3,318.6,492.8,318.6z"/>
	<rect x="482" y="388" class="st7" width="236" height="401.7"/>
	<path class="st1" d="M765.4,592.1L765.4,592.1c14.3,10.3,17.6,30.5,7.3,44.8L736.5,687c-10.3,14.3-30.5,17.6-44.8,7.3l0,0
		c-14.3-10.3-17.6-30.5-7.3-44.8l36.2-50.2C731,585,751.1,581.7,765.4,592.1z"/>
	<path class="st2" d="M762.6,584.5c14.3,10.3,17.6,30.5,7.3,44.8l-36.2,50.2c-10.3,14.3-30.5,17.6-44.8,7.3l0,0
		c-14.3-10.3-17.6-30.5-7.3-44.8l36.2-50.2C728.2,577.4,748.3,574.2,762.6,584.5z"/>
	<path class="st4" d="M581.7,339.7l36.7,0c4.4,0,8,3.6,8,8c0,4.4-3.6,8-8,8l-36.7,0c-4.4,0-8-3.6-8-8
		C573.6,343.3,577.3,339.7,581.7,339.7z"/>
	<path class="st8" d="M700.3,512.4"/>
	<path class="st9" d="M625,624.2c0,0,12.5,22,13.6,31.9c0.2,1.9-0.3-0.2-1.6,1.2c-5.2,5.7-34.2-26.8-34.2-26.8l0.6-0.2
		c-3.4,0.5-6.8,0.7-10.3,0.7c-40.9,0-74.1-34.6-74.1-77.3c0-42.7,33.2-77.3,74.1-77.3s74.1,34.6,74.1,77.3
		C667.2,586,651.9,612.6,625,624.2z"/>
	<g>
		<path class="st10" d="M606.4,525.4c16.1,0.1,30.1,6.5,41.9,19.4c0.8,0.9,0.9,1.9,0.3,2.7c-0.6,0.8-1.6,0.7-2.4-0.2
			c-3.8-4.3-8-7.9-12.7-10.7c-9.6-5.9-19.9-8.4-30.7-7.5c-13.9,1.2-25.8,7.6-35.7,18.9c-0.8,0.9-1.7,1-2.4,0.2
			c-0.7-0.7-0.6-1.8,0.2-2.7c8.1-9.4,17.9-15.6,29.1-18.5C598.2,525.9,602.3,525.4,606.4,525.4z"/>
		<path class="st10" d="M607.4,539.3c12,0.1,23.2,5.1,32.5,15.3c0.6,0.7,0.9,1.4,0.5,2.3c-0.3,0.7-0.9,1.1-1.6,0.9
			c-0.4-0.1-0.7-0.4-1-0.7c-6-6.6-13.1-11.2-21.2-13.1c-15.4-3.6-28.9,0.8-40.4,13.2c-0.2,0.3-0.4,0.5-0.7,0.8
			c-0.7,0.7-1.5,0.7-2.1,0c-0.6-0.7-0.7-1.7,0-2.4c1.4-1.6,2.9-3.2,4.5-4.6C586.2,543.3,595.9,539.5,607.4,539.3z"/>
		<path class="st10" d="M632.5,566.4c-0.5,0.6-0.8,1.1-1.2,1.3c-0.6,0.4-1.2,0.2-1.8-0.3c-1.1-1.1-2.2-2.3-3.4-3.4
			c-12.7-10.9-30.5-9.4-41.7,3.5c-0.8,1-1.8,1.1-2.4,0.3c-0.7-0.8-0.6-1.8,0.3-2.8c5.9-6.7,13-10.6,21.3-11.5
			c10.4-1.1,19.6,2.5,27.4,10.6C631.5,564.7,631.9,565.5,632.5,566.4z"/>
		<path class="st10" d="M606.8,567.1c6.2,0.1,11.5,2.4,16.1,7.2c0.5,0.6,1,1.2,0.8,2.1c-0.2,0.5-0.6,1-1,1.2
			c-0.6,0.4-1.2-0.1-1.7-0.6c-2-2.2-4.3-4-6.9-5c-7.9-3.1-15-1.4-21.1,5.2c-0.6,0.7-1.3,0.9-2,0.4c-0.7-0.4-0.9-1.2-0.6-2
			c0.1-0.4,0.3-0.7,0.6-1C595.3,569.8,600.6,567.3,606.8,567.1z"/>
		<path class="st10" d="M607.2,595.2c-3.4,0-6.2-3.1-6.2-7c0-4,2.7-7.2,6.1-7.2c3.4,0,6.2,3.1,6.2,7
			C613.4,592,610.7,595.1,607.2,595.2z M607.2,591.7c1.7,0,3.1-1.7,3.1-3.7c0-1.9-1.5-3.6-3.1-3.6c-1.7,0-3.2,1.7-3.2,3.6
			C604,590,605.5,591.7,607.2,591.7z"/>
	</g>
	<g>
		<g id="XMLID_12_">
			<path id="XMLID_20_" class="st11" d="M881.6,418.7c0,4.4-3.5,7.9-7.9,7.9H812c-4.4,0-7.9-3.5-7.9-7.9v-34.8
				c0-4.4,3.5-7.9,7.9-7.9h61.7c4.4,0,7.9,3.5,7.9,7.9V418.7z"/>
		</g>
		<path id="XMLID_11_" class="st11" d="M902.8,426.6l-21.2-14.7v-27.2l21-13.9c1.6-1.1,2.7-0.3,2.7,1.6v52.8
			C905.3,427.1,904.4,427.7,902.8,426.6z"/>
		<line id="XMLID_10_" class="st11" x1="841.1" y1="432.8" x2="812.8" y2="461.1"/>
		<line id="XMLID_9_" class="st11" x1="852.8" y1="432.8" x2="881" y2="461.1"/>
		<line id="XMLID_8_" class="st11" x1="848.4" y1="440.9" x2="848.4" y2="480.4"/>
		<path id="XMLID_7_" class="st12" d="M899.1,413.3l-11.2-7.6v-14.2l11.2-7.3c0.8-0.5,1.4-0.2,1.4,0.8v27.7
			C900.6,413.6,899.9,414,899.1,413.3z"/>
	</g>
	<g>
		<path id="XMLID_874_" class="st13" d="M605,234.8c0-0.4,0.1-0.8,0.2-1.1c0.6-1.6,2.5-2.5,4.1-1.8c2.8,1,5.7,1.6,8.7,1.6
			c3.5,0,7-0.7,10-2.1c1.6-0.7,3.5,0,4.2,1.6c0.7,1.6,0,3.5-1.6,4.2c-3.8,1.7-8.2,2.6-12.6,2.6c-3.8,0-7.5-0.7-11-2
			C605.8,237.3,605,236,605,234.8z"/>
		<path id="XMLID_648_" class="st13" d="M595.7,246.3c0-0.7,0.2-1.4,0.7-2c1.1-1.4,3.1-1.6,4.4-0.5c3.7,2.9,10.8,4.7,18.4,4.7
			c7.1,0,14-1.7,17.8-4.3c1.4-1,3.4-0.7,4.4,0.8c1,1.4,0.7,3.4-0.8,4.4c-4.9,3.4-12.9,5.5-21.4,5.5c-9.1,0-17.4-2.3-22.3-6.1
			C596.1,248.2,595.7,247.3,595.7,246.3z"/>
		<path id="XMLID_876_" class="st14" d="M653,218.3c-4-8-4.3-16.6-4.3-16.6c-0.8-7.6-2.4-14-4.4-19.4c-9.5-25.5-41.4-25.5-50.9,0
			c-2,5.3-3.6,11.8-4.4,19.4c0,0-0.4,8.7-4.3,16.6c-1.3,2.7,0.2,6.2,2.7,6.2h31.5h31.5C652.8,224.5,654.3,221,653,218.3z"/>
		<path id="XMLID_878_" class="st15" d="M618.8,157.3L618.8,157.3c-1.9,0-3.4,1.6-3.4,3.4v5.2c0,1.9,1.6,3.4,3.4,3.4
			c1.9,0,3.4-1.6,3.4-3.4v-5.2C622.3,158.8,620.7,157.3,618.8,157.3z"/>
		<path id="XMLID_1_" class="st16" d="M592.7,175c1.4-1.9,2.3-4.2,2.3-6.7c0-6.1-4.9-10.9-10.9-10.9s-10.9,4.9-10.9,10.9
			c0,2.5,0.8,4.9,2.3,6.7l8.6,14.9L592.7,175z M584.1,163.6c2.5,0,4.6,2,4.6,4.6s-2,4.6-4.6,4.6s-4.6-2-4.6-4.6
			C579.6,165.6,581.6,163.6,584.1,163.6z"/>
	</g>
	<g>
		<path id="XMLID_90_" class="st17" d="M334.6,280.4c-35.3,0-63.8,28.6-63.8,63.8s28.6,63.8,63.8,63.8s63.8-28.6,63.8-63.8
			C398.4,309,369.8,280.4,334.6,280.4z M334.6,388.1c-24.2,0-43.8-19.6-43.8-43.8c0-24.2,19.6-43.8,43.8-43.8s43.8,19.6,43.8,43.8
			C378.4,368.5,358.8,388.1,334.6,388.1z"/>
		<g id="XMLID_83_">
			<path id="XMLID_88_" class="st18" d="M359.5,374.5c0.3-0.2,0.7-0.3,1-0.6l32.4-32.4c1.8-1.8,1.7-4.7,0.1-6.2l-2.4-2.4l-69.2-69.2
				l-33.9,33.9l69.2,69.2l2.4,2.4C360.5,370.5,360.6,372.8,359.5,374.5z"/>
			<path id="XMLID_87_" class="st18" d="M307.2,322.2c-0.3,0.2-0.8,0.4-1.2,0.7l-32.4,32.4c-1.8,1.8-1.9,4.9-0.3,6.5l2.4,2.4
				l51.6,51.6l34.4-34.4l-51.6-51.6l-2.4-2.4C306.4,326.1,306.2,323.9,307.2,322.2z"/>
			<path id="XMLID_86_" class="st19" d="M359.5,374.3c1-1.7,1-3.8-0.3-5.2l-2.4-2.4L315,325l-2.4-2.4c-1.3-1.3-3.4-1.4-5.2-0.3
				c-1,1.7-1,3.8,0.3,5.2l2.4,2.4l41.7,41.7l2.4,2.4C355.6,375.3,357.8,375.4,359.5,374.3z"/>
			<line id="XMLID_85_" class="st20" x1="357.8" y1="367.8" x2="355.4" y2="370.3"/>
			<line id="XMLID_84_" class="st20" x1="314.2" y1="324.3" x2="311.9" y2="326.7"/>
		</g>
		<line id="XMLID_82_" class="st20" x1="384.6" y1="336.3" x2="379.4" y2="341.5"/>
		<line id="XMLID_81_" class="st20" x1="381.4" y1="333.1" x2="357" y2="357.5"/>
		<line id="XMLID_80_" class="st20" x1="345.4" y1="297.1" x2="335.4" y2="307.1"/>
		<line id="XMLID_79_" class="st20" x1="341.4" y1="293.1" x2="317" y2="317.5"/>
		<line id="XMLID_78_" class="st20" x1="332.2" y1="310.3" x2="329.4" y2="313.1"/>
		<line id="XMLID_77_" class="st20" x1="315.4" y1="344.7" x2="305.1" y2="355.1"/>
		<line id="XMLID_76_" class="st20" x1="302.3" y1="357.9" x2="299.9" y2="360.3"/>
		<line id="XMLID_75_" class="st20" x1="282.3" y1="360.3" x2="291.9" y2="350.7"/>
		<line id="XMLID_74_" class="st20" x1="287.1" y1="365.1" x2="311.4" y2="340.7"/>
		<line id="XMLID_73_" class="st20" x1="343.4" y1="372.7" x2="333" y2="383"/>
		<line id="XMLID_72_" class="st20" x1="330.2" y1="385.9" x2="327.8" y2="388.3"/>
		<line id="XMLID_71_" class="st20" x1="315.1" y1="393" x2="339.4" y2="368.7"/>
		<line id="XMLID_70_" class="st20" x1="322.8" y1="374.9" x2="334.2" y2="363.4"/>
		<line id="XMLID_69_" class="st20" x1="295.5" y1="347.1" x2="297.9" y2="344.7"/>
		<line id="XMLID_68_" class="st20" x1="344.6" y1="389.8" x2="339.4" y2="395"/>
		<line id="XMLID_67_" class="st20" x1="341.4" y1="386.6" x2="326.6" y2="401.4"/>
		<path id="XMLID_66_" class="st21" d="M345,386.5c-1.7-1.7-1.7-4.3,0-5.9c1.7-1.7,4.3-1.7,5.9,0c1.7,1.7,1.7,4.3,0,5.9
			C349.3,388.1,346.7,388.1,345,386.5z"/>
		<line id="XMLID_65_" class="st20" x1="337.4" y1="397" x2="331.8" y2="402.6"/>
		
			<rect id="XMLID_64_" x="303.8" y="291.8" transform="matrix(0.7071 -0.7071 0.7071 0.7071 -116.0819 314.0359)" class="st21" width="34.5" height="10.7"/>
		<line id="XMLID_63_" class="st20" x1="325.8" y1="277.6" x2="319" y2="284.3"/>
		<line id="XMLID_62_" class="st20" x1="316.3" y1="287.2" x2="301.9" y2="301.5"/>
		<line id="XMLID_61_" class="st20" x1="322.2" y1="274" x2="304.6" y2="291.6"/>
		
			<rect id="XMLID_60_" x="334.4" y="310.1" transform="matrix(-0.7071 0.7071 -0.7071 -0.7071 831.1655 309.9036)" class="st21" width="33.9" height="33.9"/>
		
			<rect id="XMLID_59_" x="295.8" y="360.2" transform="matrix(-0.7071 0.7071 -0.7071 -0.7071 793.6867 404.5667)" class="st21" width="34.5" height="13"/>
		<g id="XMLID_53_">
			<g id="XMLID_56_">
				<polyline id="XMLID_57_" class="st22" points="362.3,326.8 379.5,309.6 385.5,315.7 389,291.8 365.1,295.3 370.3,300.5 
					353.1,317.6 				"/>
			</g>
			<line id="XMLID_55_" class="st20" x1="365.9" y1="330.4" x2="349.9" y2="314.5"/>
			<line id="XMLID_54_" class="st23" x1="380.7" y1="299.7" x2="361.9" y2="318.4"/>
		</g>
		<g id="XMLID_48_">
			<g id="XMLID_51_">
				<polyline id="XMLID_52_" class="st22" points="304,368 286.8,385.2 280.8,379.1 277.3,403 301.2,399.6 296,394.3 313.2,377.2 
									"/>
			</g>
			<line id="XMLID_50_" class="st20" x1="300.4" y1="364.4" x2="316.4" y2="380.4"/>
			<line id="XMLID_49_" class="st23" x1="285.6" y1="395.2" x2="304.4" y2="376.4"/>
		</g>
	</g>
	<g>
		<path class="st2" d="M457.7,768l67-58.5c36.3-31.7,22.5-103.1-9.3-75.4l-78.5,68.6C419.7,717.7,439,748.7,457.7,768z"/>
		<path class="st3" d="M506.6,673.7c26-19.7,24-39.7,16.5-44.6c-2.4,1-5,2.6-7.7,5l-32.1,28C490.8,671.7,500.2,678.6,506.6,673.7z"
			/>
	</g>
</g>
</svg>
