<?xml version="1.0" encoding="utf-8"?>
<!-- Generator: Adobe Illustrator 19.0.0, SVG Export Plug-In . SVG Version: 6.00 Build 0)  -->
<svg version="1.1" id="Layer_1" xmlns="http://www.w3.org/2000/svg" xmlns:xlink="http://www.w3.org/1999/xlink" x="0px" y="0px" width="150" heigth="150" viewBox="0 0 125 221" style="enable-background:new 0 0 125 221;" xml:space="preserve">
<style type="text/css">
	.st0{fill:#00ADF1;}
	.st1{fill:#D1D3D4;}
	.st2{fill:#FFFFFA;}
	.st3{fill:none;stroke:#231F20;stroke-width:4;stroke-miterlimit:10;}
	.st4{opacity:0.3;fill:#37373F;}
</style>
<path id="XMLID_827_" class="st0" d="M107.3,5.7H18.2c-7.6,0-13.8,6.2-13.8,13.8V200c0,7.6,6.2,13.8,13.8,13.8h89.1
	c7.6,0,13.8-6.2,13.8-13.8V19.5C121.1,11.8,114.9,5.7,107.3,5.7z"/>
<path id="XMLID_828_" class="st1" d="M15.8,185.6V22.1c0-0.1,0.1-0.2,0.2-0.2h93.3c0.1,0,0.2,0.1,0.2,0.2v163.5
	c0,0.1-0.1,0.2-0.2,0.2H16.1C15.9,185.8,15.8,185.7,15.8,185.6z"/>
<circle id="XMLID_829_" class="st2" cx="62.7" cy="200.3" r="9.8"/>
<path id="XMLID_830_" class="st2" d="M76.6,12.4H48.9c-0.8,0-1.4,0.7-1.4,1.4v0.3c0,0.8,0.7,1.4,1.4,1.4h27.7c0.8,0,1.4-0.7,1.4-1.4
	v-0.3C78,13,77.4,12.4,76.6,12.4z"/>
<g id="XMLID_12_">
	<path id="XMLID_20_" class="st3" d="M76,108c0,2.8-2.2,5-5,5H32c-2.8,0-5-2.2-5-5V86c0-2.8,2.2-5,5-5h39c2.8,0,5,2.2,5,5V108z"/>
</g>
<path id="XMLID_11_" class="st3" d="M89.4,113L76,103.7V86.5l13.3-8.8c1-0.7,1.7-0.2,1.7,1v33.4C91,113.3,90.4,113.7,89.4,113z"/>
<line id="XMLID_10_" class="st3" x1="50.4" y1="116.9" x2="32.5" y2="134.8"/>
<line id="XMLID_9_" class="st3" x1="57.8" y1="116.9" x2="75.6" y2="134.8"/>
<line id="XMLID_8_" class="st3" x1="55" y1="122" x2="55" y2="147"/>
<path id="XMLID_7_" class="st4" d="M87.1,104.6L80,99.8v-9l7.1-4.6c0.5-0.3,0.9-0.1,0.9,0.5v17.5C88,104.8,87.6,105,87.1,104.6z"/>
</svg>
